{
  "accessors": [
    {
      "bufferView": 2,
      "componentType": 5126,
      "count": 16641,
      "max": [
        1.4702390432357788,
        1.028799057006836,
        1.4131100177764893
      ],
      "min": [
        -1.4712740182876587,
        -2.626466989517212,
        -1.4359409809112549
      ],
      "type": "VEC3"
    },
    {
      "bufferView": 2,
      "byteOffset": 199692,
      "componentType": 5126,
      "count": 16641,
      "max": [
        0.9998990297317505,
        0.9999465346336365,
        0.9999966621398926
      ],
      "min": [
        -0.999989926815033,
        -0.3595401644706726,
        -0.9999684691429138
      ],
      "type": "VEC3"
    },
    {
      "bufferView": 3,
      "componentType": 5126,
      "count": 16641,
      "max": [
        0.9999945759773254,
        0.9986998438835144,
        0.8687881231307983,
        1.0
      ],
      "min": [
        -0.9869915246963501,
        -0.9999948740005493,
        -0.9998429417610168,
        1.0
      ],
      "type": "VEC4"
    },
    {
      "bufferView": 1,
      "componentType": 5126,
      "count": 16641,
      "max": [
        1.0,
        1.0
      ],
      "min": [
        0.0,
        0.0
      ],
      "type": "VEC2"
    },
    {
      "bufferView": 1,
      "byteOffset": 133128,
      "componentType": 5126,
      "count": 16641,
      "max": [
        1.0,
        1.0
      ],
      "min": [
        0.0,
        0.0
      ],
      "type": "VEC2"
    },
    {
      "bufferView": 0,
      "componentType": 5125,
      "count": 98304,
      "type": "SCALAR"
    }
  ],
  "asset": {
    "extras": {
      "author": "Javier.Herrera (https://sketchfab.com/Javier.Herrera)",
      "license": "CC-BY-4.0 (http://creativecommons.org/licenses/by/4.0/)",
      "source": "https://sketchfab.com/3d-models/cloth-base-mesh-3892a25754c7452eabe772ff691e4c6f",
      "title": "Cloth base mesh"
    },
    "generator": "Sketchfab-12.68.0",
    "version": "2.0"
  },
  "bufferViews": [
    {
      "buffer": 0,
      "byteLength": 393216,
      "name": "floatBufferViews",
      "target": 34963
    },
    {
      "buffer": 0,
      "byteLength": 266256,
      "byteOffset": 393216,
      "byteStride": 8,
      "name": "floatBufferViews",
      "target": 34962
    },
    {
      "buffer": 0,
      "byteLength": 399384,
      "byteOffset": 659472,
      "byteStride": 12,
      "name": "floatBufferViews",
      "target": 34962
    },
    {
      "buffer": 0,
      "byteLength": 266256,
      "byteOffset": 1058856,
      "byteStride": 16,
      "name": "floatBufferViews",
      "target": 34962
    }
  ],
  "buffers": [
    {
      "byteLength": 1325112,
      "uri": "scene.bin"
    }
  ],
  "images": [
    {
      "uri": "textures/Cloth_baseColor.png"
    },
    {
      "uri": "textures/Cloth_metallicRoughness.png"
    },
    {
      "uri": "textures/Cloth_normal.png"
    }
  ],
  "materials": [
    {
      "doubleSided": true,
      "emissiveFactor": [
        0.20649939962902908,
        0.20649939962902908,
        0.20649939962902908
      ],
      "emissiveTexture": {
        "index": 0
      },
      "name": "Cloth",
      "normalTexture": {
        "index": 2
      },
      "occlusionTexture": {
        "index": 1
      },
      "pbrMetallicRoughness": {
        "baseColorTexture": {
          "index": 0
        },
        "metallicFactor": 0.0,
        "metallicRoughnessTexture": {
          "index": 1
        }
      }
    }
  ],
  "meshes": [
    {
      "name": "Cloth_Cloth_0",
      "primitives": [
        {
          "attributes": {
            "NORMAL": 1,
            "POSITION": 0,
            "TANGENT": 2,
            "TEXCOORD_0": 3,
            "TEXCOORD_1": 4
          },
          "indices": 5,
          "material": 0,
          "mode": 4
        }
      ]
    }
  ],
  "nodes": [
    {
      "children": [
        1
      ],
      "matrix": [
        0.003719241125509143,
        0.0,
        0.0,
        0.0,
        0.0,
        8.258374263346064e-19,
        -0.003719241125509143,
        0.0,
        0.0,
        0.003719241125509143,
        8.258374263346064e-19,
        0.0,
        0.0,
        0.0,
        0.0,
        1.0
      ],
      "name": "Sketchfab_model"
    },
    {
      "children": [
        2
      ],
      "matrix": [
        1.0,
        0.0,
        0.0,
        0.0,
        0.0,
        0.0,
        1.0,
        0.0,
        0.0,
        -1.0,
        0.0,
        0.0,
        0.0,
        0.0,
        0.0,
        1.0
      ],
      "name": "6eb17c1115d3426bbc2f1c4cd387a5b9.fbx"
    },
    {
      "children": [
        3
      ],
      "name": "RootNode"
    },
    {
      "children": [
        4
      ],
      "matrix": [
        100.0,
        0.0,
        0.0,
        0.0,
        0.0,
        99.99999999999866,
        1.6292067073209114e-05,
        0.0,
        0.0,
        -1.6292067073209114e-05,
        99.99999999999866,
        0.0,
        0.0,
        0.0,
        0.0,
        1.0
      ],
      "name": "Cloth"
    },
    {
      "mesh": 0,
      "name": "Cloth_Cloth_0"
    }
  ],
  "samplers": [
    {
      "magFilter": 9729,
      "minFilter": 9987,
      "wrapS": 10497,
      "wrapT": 10497
    }
  ],
  "scene": 0,
  "scenes": [
    {
      "name": "Sketchfab_Scene",
      "nodes": [
        0
      ]
    }
  ],
  "textures": [
    {
      "sampler": 0,
      "source": 0
    },
    {
      "sampler": 0,
      "source": 1
    },
    {
      "sampler": 0,
      "source": 2
    }
  ]
}
