{
  "accessors": [
    {
      "bufferView": 2,
      "componentType": 5126,
      "count": 59657,
      "max": [
        14.019393920898438,
        141.76968383789063,
        12.963202476501465
      ],
      "min": [
        -14.047194480895996,
        81.65718841552734,
        -12.144661903381348
      ],
      "type": "VEC3"
    },
    {
      "bufferView": 2,
      "byteOffset": 715884,
      "componentType": 5126,
      "count": 59657,
      "max": [
        0.9999992847442627,
        0.999795138835907,
        0.9999993443489075
      ],
      "min": [
        -0.9999975562095642,
        -0.9999849796295166,
        -0.9999993443489075
      ],
      "type": "VEC3"
    },
    {
      "bufferView": 3,
      "componentType": 5126,
      "count": 59657,
      "max": [
        1.0,
        1.0,
        1.0,
        1.0
      ],
      "min": [
        -1.0,
        -1.0,
        -1.0,
        -1.0
      ],
      "type": "VEC4"
    },
    {
      "bufferView": 1,
      "componentType": 5126,
      "count": 59657,
      "max": [
        0.9765292406082153,
        0.9778227210044861
      ],
      "min": [
        0.03249160945415497,
        0.049577951431274414
      ],
      "type": "VEC2"
    },
    {
      "bufferView": 1,
      "byteOffset": 477256,
      "componentType": 5126,
      "count": 59657,
      "max": [
        0.9765292406082153,
        0.9778227210044861
      ],
      "min": [
        0.03249160945415497,
        0.049577951431274414
      ],
      "type": "VEC2"
    },
    {
      "bufferView": 1,
      "byteOffset": 954512,
      "componentType": 5126,
      "count": 59657,
      "max": [
        0.9765292406082153,
        0.9778227210044861
      ],
      "min": [
        0.03249160945415497,
        0.049577951431274414
      ],
      "type": "VEC2"
    },
    {
      "bufferView": 0,
      "componentType": 5125,
      "count": 347388,
      "type": "SCALAR"
    }
  ],
  "asset": {
    "extras": {
      "author": "Konstantin R. (https://sketchfab.com/Prepadoshniy)",
      "license": "CC-BY-4.0 (http://creativecommons.org/licenses/by/4.0/)",
      "source": "https://sketchfab.com/3d-models/bodysuit-af2ad53bfdf24fc5a25972ed8025226b",
      "title": "Bodysuit"
    },
    "generator": "Sketchfab-15.5.0",
    "version": "2.0"
  },
  "bufferViews": [
    {
      "buffer": 0,
      "byteLength": 1389552,
      "name": "floatBufferViews",
      "target": 34963
    },
    {
      "buffer": 0,
      "byteLength": 1431768,
      "byteOffset": 1389552,
      "byteStride": 8,
      "name": "floatBufferViews",
      "target": 34962
    },
    {
      "buffer": 0,
      "byteLength": 1431768,
      "byteOffset": 2821320,
      "byteStride": 12,
      "name": "floatBufferViews",
      "target": 34962
    },
    {
      "buffer": 0,
      "byteLength": 954512,
      "byteOffset": 4253088,
      "byteStride": 16,
      "name": "floatBufferViews",
      "target": 34962
    }
  ],
  "buffers": [
    {
      "byteLength": 5207600,
      "uri": "scene.bin"
    }
  ],
  "extensionsUsed": [
    "KHR_materials_transmission",
    "KHR_materials_specular"
  ],
  "images": [
    {
      "uri": "textures/material_baseColor.png"
    },
    {
      "uri": "textures/material_normal.png"
    },
    {
      "uri": "textures/material_transmission.png"
    }
  ],
  "materials": [
    {
      "alphaMode": "BLEND",
      "doubleSided": true,
      "extensions": {
        "KHR_materials_specular": {
          "specularColorFactor": [
            1.0,
            1.0,
            1.0
          ],
          "specularFactor": 0.26666747936755614
        },
        "KHR_materials_transmission": {
          "transmissionFactor": 1.0,
          "transmissionTexture": {
            "index": 2,
            "texCoord": 2
          }
        }
      },
      "name": "material",
      "normalTexture": {
        "index": 1,
        "texCoord": 1
      },
      "pbrMetallicRoughness": {
        "baseColorTexture": {
          "index": 0
        },
        "metallicFactor": 0.0
      }
    }
  ],
  "meshes": [
    {
      "name": "Bodysuit_Mat_0",
      "primitives": [
        {
          "attributes": {
            "NORMAL": 1,
            "POSITION": 0,
            "TANGENT": 2,
            "TEXCOORD_0": 3,
            "TEXCOORD_1": 4,
            "TEXCOORD_2": 5
          },
          "indices": 6,
          "material": 0,
          "mode": 4
        }
      ]
    }
  ],
  "nodes": [
    {
      "children": [
        1
      ],
      "matrix": [
        1.0,
        0.0,
        0.0,
        0.0,
        0.0,
        2.220446049250313e-16,
        -1.0,
        0.0,
        0.0,
        1.0,
        2.220446049250313e-16,
        0.0,
        0.0,
        0.0,
        0.0,
        1.0
      ],
      "name": "Sketchfab_model"
    },
    {
      "children": [
        2
      ],
      "matrix": [
        0.009999999776482582,
        0.0,
        0.0,
        0.0,
        0.0,
        0.0,
        0.009999999776482582,
        0.0,
        0.0,
        -0.009999999776482582,
        0.0,
        0.0,
        0.0,
        0.0,
        0.0,
        1.0
      ],
      "name": "bdf59f57a64d4b39afd4fad1e719c554.fbx"
    },
    {
      "children": [
        3
      ],
      "name": "RootNode"
    },
    {
      "children": [
        4
      ],
      "name": "Bodysuit"
    },
    {
      "mesh": 0,
      "name": "Bodysuit_Mat_0"
    }
  ],
  "samplers": [
    {
      "magFilter": 9729,
      "minFilter": 9987,
      "wrapS": 10497,
      "wrapT": 10497
    }
  ],
  "scene": 0,
  "scenes": [
    {
      "name": "Sketchfab_Scene",
      "nodes": [
        0
      ]
    }
  ],
  "textures": [
    {
      "sampler": 0,
      "source": 0
    },
    {
      "sampler": 0,
      "source": 1
    },
    {
      "sampler": 0,
      "source": 2
    }
  ]
}
